# xmcd CD database file
#
# Track frame offsets:
#	150
#	20635
#	34475
#	47040
#	59520
#	83840
#	95145
#	121890
#	136100
#
# Disc length: 2253 seconds
#
# Revision: 0
# Processed by: cddbd v1.5PL3 Copyright (c) Steve Scherf et al.
# Submitted via: CDex 1.51
#
DISCID=7b08cb09
DTITLE=Silvio Caldas - Silvio Caldas - 20 Preferidas
DYEAR=1997
DGENRE=Velhas Cancoes do Brasil
TTITLE0=Aquarela do Brasil-Onde o céu azul-Viva meu samba
TTITLE1=Paciência-Lupicinio Rodrigues
TTITLE2=Maria e Risque-Ary Barroso
TTITLE3=Homenagem-Lupicinio
TTITLE4=Palpite infeliz-No rancho fundo-Serra da Boa Esperanca
TTITLE5=Katia-Georges Moran e V Bezerra
TTITLE6=Nunca mais-As rosas nao falam e Perfil de S Paulo
TTITLE7=Velhos Carnavai-Antonio Bruno
TTITLE8=Cabelos cor de prata-Pierrot-Serenata do adeus-Chao de Estrelas e Ate amanha
EXTD=YEAR: 1997
EXTT0=
EXTT1=
EXTT2=
EXTT3=
EXTT4=
EXTT5=
EXTT6=
EXTT7=
EXTT8=
PLAYORDER=
